<<<<<<< HEAD
# Exported from Wings 3D 1.5.2
o cylinder1
#64 vertices, 124 faces
v 1.00000000 -1.2533199e-17 6.6666667e-2
v 0.98078528 -0.19509032 6.6666667e-2
v 0.92387953 -0.38268343 6.6666667e-2
v 0.83146961 -0.55557023 6.6666667e-2
v 0.70710678 -0.70710678 6.6666667e-2
v 0.55557023 -0.83146961 6.6666667e-2
v 0.38268343 -0.92387953 6.6666667e-2
v 0.19509032 -0.98078528 6.6666667e-2
v 1.3004102e-16 -1.00000000 6.6666667e-2
v -0.19509032 -0.98078528 6.6666667e-2
v -0.38268343 -0.92387953 6.6666667e-2
v -0.55557023 -0.83146961 6.6666667e-2
v -0.70710678 -0.70710678 6.6666667e-2
v -0.83146961 -0.55557023 6.6666667e-2
v -0.92387953 -0.38268343 6.6666667e-2
v -0.98078528 -0.19509032 6.6666667e-2
v -1.00000000 -1.3499383e-16 6.6666667e-2
v -0.98078528 0.19509032 6.6666667e-2
v -0.92387953 0.38268343 6.6666667e-2
v -0.83146961 0.55557023 6.6666667e-2
v -0.70710678 0.70710678 6.6666667e-2
v -0.55557023 0.83146961 6.6666667e-2
v -0.38268343 0.92387953 6.6666667e-2
v -0.19509032 0.98078528 6.6666667e-2
v -1.1488026e-16 1.00000000 6.6666667e-2
v 0.19509032 0.98078528 6.6666667e-2
v 0.38268343 0.92387953 6.6666667e-2
v 0.55557023 0.83146961 6.6666667e-2
v 0.70710678 0.70710678 6.6666667e-2
v 0.83146961 0.55557023 6.6666667e-2
v 0.92387953 0.38268343 6.6666667e-2
v 0.98078528 0.19509032 6.6666667e-2
v 1.00000000 -1.6615221e-17 -6.6666667e-2
v 0.98078528 -0.19509032 -6.6666667e-2
v 0.92387953 -0.38268343 -6.6666667e-2
v 0.83146961 -0.55557023 -6.6666667e-2
v 0.70710678 -0.70710678 -6.6666667e-2
v 0.55557023 -0.83146961 -6.6666667e-2
v 0.38268343 -0.92387953 -6.6666667e-2
v 0.19509032 -0.98078528 -6.6666667e-2
v 1.3004102e-16 -1.00000000 -6.6666667e-2
v -0.19509032 -0.98078528 -6.6666667e-2
v -0.38268343 -0.92387953 -6.6666667e-2
v -0.55557023 -0.83146961 -6.6666667e-2
v -0.70710678 -0.70710678 -6.6666667e-2
v -0.83146961 -0.55557023 -6.6666667e-2
v -0.92387953 -0.38268343 -6.6666667e-2
v -0.98078528 -0.19509032 -6.6666667e-2
v -1.00000000 -1.3907586e-16 -6.6666667e-2
v -0.98078528 0.19509032 -6.6666667e-2
v -0.92387953 0.38268343 -6.6666667e-2
v -0.83146961 0.55557023 -6.6666667e-2
v -0.70710678 0.70710678 -6.6666667e-2
v -0.55557023 0.83146961 -6.6666667e-2
v -0.38268343 0.92387953 -6.6666667e-2
v -0.19509032 0.98078528 -6.6666667e-2
v -1.1488026e-16 1.00000000 -6.6666667e-2
v 0.19509032 0.98078528 -6.6666667e-2
v 0.38268343 0.92387953 -6.6666667e-2
v 0.55557023 0.83146961 -6.6666667e-2
v 0.70710678 0.70710678 -6.6666667e-2
v 0.83146961 0.55557023 -6.6666667e-2
v 0.92387953 0.38268343 -6.6666667e-2
v 0.98078528 0.19509032 -6.6666667e-2
vt 0.0000000e+0 0.0000000e+0
vt 0.0000000e+0 2.2204460e-16
vt 0.0000000e+0 4.4408921e-16
vt 0.0000000e+0 6.6666667e-2
vt 0.0000000e+0 6.6666667e-2
vt 0.0000000e+0 6.6666667e-2
vt 0.0000000e+0 6.6666667e-2
vt 0.0000000e+0 6.6666667e-2
vt 0.0000000e+0 6.6666667e-2
vt 0.0000000e+0 6.6666667e-2
vt 0.0000000e+0 6.6666667e-2
vt 0.0000000e+0 6.6666667e-2
vt 0.0000000e+0 6.6666667e-2
vt 0.0000000e+0 6.6666667e-2
vt 0.0000000e+0 6.6666667e-2
vt 0.0000000e+0 0.50000000
vt 0.0000000e+0 0.50000000
vt 5.5511151e-17 0.0000000e+0
vt 8.3266727e-17 4.4408921e-16
vt 1.1102230e-16 0.0000000e+0
vt 1.1102230e-16 2.2204460e-16
vt 2.2204460e-16 6.6666667e-2
vt 2.2204460e-16 6.6666667e-2
vt 2.2204460e-16 6.6666667e-2
vt 2.2204460e-16 6.6666667e-2
vt 2.2204460e-16 6.6666667e-2
vt 2.2204460e-16 6.6666667e-2
vt 2.7755576e-16 0.0000000e+0
vt 4.4408921e-16 6.6666667e-2
vt 4.4408921e-16 6.6666667e-2
vt 4.4408921e-16 6.6666667e-2
vt 1.2212453e-15 0.0000000e+0
vt 9.6073598e-3 0.40245484
vt 9.6073598e-3 0.40245484
vt 9.6073598e-3 0.59754516
vt 9.6073598e-3 0.59754516
vt 3.8060234e-2 0.30865828
vt 3.8060234e-2 0.30865828
vt 3.8060234e-2 0.69134172
vt 3.8060234e-2 0.69134172
vt 8.4265194e-2 0.22221488
vt 8.4265194e-2 0.22221488
vt 8.4265194e-2 0.77778512
vt 8.4265194e-2 0.77778512
vt 9.8017140e-2 0.0000000e+0
vt 9.8017140e-2 2.2204460e-16
vt 9.8017140e-2 6.6666667e-2
vt 9.8017140e-2 0.0000000e+0
vt 9.8017140e-2 2.2204460e-16
vt 9.8017140e-2 6.6666667e-2
vt 9.8017140e-2 0.0000000e+0
vt 9.8017140e-2 2.2204460e-16
vt 9.8017140e-2 6.6666667e-2
vt 9.8017140e-2 6.6666667e-2
vt 9.8017140e-2 6.6666667e-2
vt 9.8017140e-2 6.6666667e-2
vt 9.8017140e-2 6.6666667e-2
vt 9.8017140e-2 0.0000000e+0
vt 9.8017140e-2 6.6666667e-2
vt 9.8017140e-2 6.6666667e-2
vt 9.8017140e-2 6.6666667e-2
vt 9.8017140e-2 0.0000000e+0
vt 9.8017140e-2 6.6666667e-2
vt 9.8017140e-2 6.6666667e-2
vt 9.8017140e-2 6.6666667e-2
vt 9.8017140e-2 4.4408921e-16
vt 9.8017140e-2 0.0000000e+0
vt 9.8017140e-2 0.0000000e+0
vt 9.8017140e-2 2.2204460e-16
vt 9.8017140e-2 4.4408921e-16
vt 9.8017140e-2 6.6666667e-2
vt 9.8017140e-2 6.6666667e-2
vt 9.8017140e-2 0.0000000e+0
vt 9.8017140e-2 2.2204460e-16
vt 9.8017140e-2 6.6666667e-2
vt 9.8017140e-2 6.6666667e-2
vt 9.8017140e-2 6.6666667e-2
vt 9.8017140e-2 0.0000000e+0
vt 9.8017140e-2 2.2204460e-16
vt 9.8017140e-2 6.6666667e-2
vt 9.8017140e-2 0.0000000e+0
vt 9.8017140e-2 6.6666667e-2
vt 9.8017140e-2 6.6666667e-2
vt 9.8017140e-2 6.6666667e-2
vt 9.8017140e-2 2.2204460e-16
vt 9.8017140e-2 6.6666667e-2
vt 9.8017140e-2 6.6666667e-2
vt 9.8017140e-2 6.6666667e-2
vt 9.8017140e-2 6.6666667e-2
vt 9.8017140e-2 0.0000000e+0
vt 9.8017140e-2 6.6666667e-2
vt 9.8017140e-2 6.6666667e-2
vt 9.8017140e-2 0.0000000e+0
vt 9.8017140e-2 6.6666667e-2
vt 9.8017140e-2 0.0000000e+0
vt 9.8017140e-2 2.2204460e-16
vt 0.14644661 0.14644661
vt 0.14644661 0.85355339
vt 0.14644661 0.14644661
vt 0.14644661 0.85355339
vt 0.22221488 8.4265194e-2
vt 0.22221488 8.4265194e-2
vt 0.22221488 0.91573481
vt 0.22221488 0.91573481
vt 0.30865828 3.8060234e-2
vt 0.30865828 0.96193977
vt 0.30865828 3.8060234e-2
vt 0.30865828 0.96193977
vt 0.40245484 9.6073598e-3
vt 0.40245484 9.6073598e-3
vt 0.40245484 0.99039264
vt 0.40245484 0.99039264
vt 0.50000000 0.0000000e+0
vt 0.50000000 0.0000000e+0
vt 0.50000000 1.00000000
vt 0.50000000 1.00000000
vt 0.59754516 9.6073598e-3
vt 0.59754516 9.6073598e-3
vt 0.59754516 0.99039264
vt 0.59754516 0.99039264
vt 0.69134172 3.8060234e-2
vt 0.69134172 3.8060234e-2
vt 0.69134172 0.96193977
vt 0.69134172 0.96193977
vt 0.77778512 8.4265194e-2
vt 0.77778512 8.4265194e-2
vt 0.77778512 0.91573481
vt 0.77778512 0.91573481
vt 0.85355339 0.14644661
vt 0.85355339 0.14644661
vt 0.85355339 0.85355339
vt 0.85355339 0.85355339
vt 0.91573481 0.22221488
vt 0.91573481 0.22221488
vt 0.91573481 0.77778512
vt 0.91573481 0.77778512
vt 0.96193977 0.30865828
vt 0.96193977 0.30865828
vt 0.96193977 0.69134172
vt 0.96193977 0.69134172
vt 0.99039264 0.40245484
vt 0.99039264 0.40245484
vt 0.99039264 0.59754516
vt 0.99039264 0.59754516
vt 1.00000000 0.50000000
vt 1.00000000 0.50000000
vn 9.2552995e-16 1.0670279e-16 1.00000000
vn 1.00000000 4.3926550e-16 1.8578387e-32
vn 1.00000000 4.3926550e-16 1.8578387e-32
vn 2.2838006e-16 1.0670279e-16 1.00000000
vn 0.98078528 -0.19509032 4.1680777e-18
vn 0.98078528 -0.19509032 4.1680777e-18
vn 2.2838006e-16 1.0670279e-16 1.00000000
vn 0.98078528 -0.19509032 4.1680777e-18
vn 0.98078528 -0.19509032 4.1680777e-18
vn -1.7470513e-16 1.2018455e-16 1.00000000
vn -1.7470513e-16 1.2018455e-16 1.00000000
vn -1.7470513e-16 1.2018455e-16 1.00000000
vn 0.92387953 -0.38268343 0.0000000e+0
vn 0.92387953 -0.38268343 0.0000000e+0
vn 0.83146961 -0.55557023 0.0000000e+0
vn 0.83146961 -0.55557023 0.0000000e+0
vn -9.1695131e-17 1.2557300e-16 1.00000000
vn -9.1695131e-17 1.2557300e-16 1.00000000
vn -9.1695131e-17 1.2557300e-16 1.00000000
vn 0.83146961 -0.55557023 0.0000000e+0
vn 0.83146961 -0.55557023 0.0000000e+0
vn -9.1127183e-17 1.2013689e-16 1.00000000
vn -9.1127183e-17 1.2013689e-16 1.00000000
vn -9.1127183e-17 1.2013689e-16 1.00000000
vn 0.70710678 -0.70710678 0.0000000e+0
vn 0.70710678 -0.70710678 0.0000000e+0
vn 0.55557023 -0.83146961 0.0000000e+0
vn 0.55557023 -0.83146961 0.0000000e+0
vn -3.6738519e-17 1.2270568e-16 1.00000000
vn -3.6738519e-17 1.2270568e-16 1.00000000
vn -3.6738519e-17 1.2270568e-16 1.00000000
vn 0.55557023 -0.83146961 0.0000000e+0
vn 0.55557023 -0.83146961 0.0000000e+0
vn -5.1051720e-17 1.2684687e-16 1.00000000
vn -5.1051720e-17 1.2684687e-16 1.00000000
vn -5.1051720e-17 1.2684687e-16 1.00000000
vn 0.38268343 -0.92387953 0.0000000e+0
vn 0.38268343 -0.92387953 0.0000000e+0
vn 0.19509032 -0.98078528 0.0000000e+0
vn 0.19509032 -0.98078528 0.0000000e+0
vn 1.0679382e-17 1.2274155e-16 1.00000000
vn 1.0679382e-17 1.2274155e-16 1.00000000
vn 1.0679382e-17 1.2274155e-16 1.00000000
vn 0.19509032 -0.98078528 0.0000000e+0
vn 0.19509032 -0.98078528 0.0000000e+0
vn -7.7075121e-18 1.2335746e-16 1.00000000
vn -7.7075121e-18 1.2335746e-16 1.00000000
vn -7.7075121e-18 1.2335746e-16 1.00000000
vn -2.0917405e-17 -1.00000000 0.0000000e+0
vn -2.0917405e-17 -1.00000000 0.0000000e+0
vn -0.19509032 -0.98078528 0.0000000e+0
vn -0.19509032 -0.98078528 0.0000000e+0
vn -2.7827381e-17 1.2181483e-16 1.00000000
vn -2.7827381e-17 1.2181483e-16 1.00000000
vn -2.7827381e-17 1.2181483e-16 1.00000000
vn -0.19509032 -0.98078528 0.0000000e+0
vn -0.19509032 -0.98078528 0.0000000e+0
vn -2.4149436e-17 1.2521092e-16 1.00000000
vn -2.4149436e-17 1.2521092e-16 1.00000000
vn -2.4149436e-17 1.2521092e-16 1.00000000
vn -0.38268343 -0.92387953 0.0000000e+0
vn -0.38268343 -0.92387953 0.0000000e+0
vn -0.55557023 -0.83146961 0.0000000e+0
vn -0.55557023 -0.83146961 0.0000000e+0
vn -1.7954320e-17 1.2601346e-16 1.00000000
vn -1.7954320e-17 1.2601346e-16 1.00000000
vn -1.7954320e-17 1.2601346e-16 1.00000000
vn -0.55557023 -0.83146961 0.0000000e+0
vn -0.55557023 -0.83146961 0.0000000e+0
vn 3.7285563e-17 1.2023131e-16 1.00000000
vn 3.7285563e-17 1.2023131e-16 1.00000000
vn 3.7285563e-17 1.2023131e-16 1.00000000
vn -0.70710678 -0.70710678 0.0000000e+0
vn -0.70710678 -0.70710678 0.0000000e+0
vn -0.83146961 -0.55557023 0.0000000e+0
vn -0.83146961 -0.55557023 0.0000000e+0
vn -6.1600621e-17 1.2251684e-16 1.00000000
vn -6.1600621e-17 1.2251684e-16 1.00000000
vn -6.1600621e-17 1.2251684e-16 1.00000000
vn -0.83146961 -0.55557023 0.0000000e+0
vn -0.83146961 -0.55557023 0.0000000e+0
vn -1.6554270e-16 1.2624921e-16 1.00000000
vn -1.6554270e-16 1.2624921e-16 1.00000000
vn -1.6554270e-16 1.2624921e-16 1.00000000
vn -0.92387953 -0.38268343 0.0000000e+0
vn -0.92387953 -0.38268343 0.0000000e+0
vn -0.98078528 -0.19509032 0.0000000e+0
vn -0.98078528 -0.19509032 0.0000000e+0
vn -1.0625112e-16 1.1344367e-16 1.00000000
vn -1.0625112e-16 1.1344367e-16 1.00000000
vn -1.0625112e-16 1.1344367e-16 1.00000000
vn -0.98078528 -0.19509032 0.0000000e+0
vn -0.98078528 -0.19509032 0.0000000e+0
vn -4.6276497e-16 1.0670279e-16 1.00000000
vn -1.00000000 -5.0201771e-16 0.0000000e+0
vn -1.00000000 -5.0201771e-16 0.0000000e+0
vn -0.98078528 0.19509032 0.0000000e+0
vn -0.98078528 0.19509032 0.0000000e+0
vn 1.5925904e-16 1.0670279e-16 1.00000000
vn 1.5925904e-16 1.0670279e-16 1.00000000
vn -0.98078528 0.19509032 0.0000000e+0
vn -0.98078528 0.19509032 0.0000000e+0
vn 1.6246257e-16 1.2018455e-16 1.00000000
vn 1.6246257e-16 1.2018455e-16 1.00000000
vn 1.6246257e-16 1.2018455e-16 1.00000000
vn -0.92387953 0.38268343 0.0000000e+0
vn -0.92387953 0.38268343 0.0000000e+0
vn -0.83146961 0.55557023 0.0000000e+0
vn -0.83146961 0.55557023 0.0000000e+0
vn 1.3404654e-17 1.2557300e-16 1.00000000
vn 1.3404654e-17 1.2557300e-16 1.00000000
vn 1.3404654e-17 1.2557300e-16 1.00000000
vn -0.83146961 0.55557023 0.0000000e+0
vn -0.83146961 0.55557023 0.0000000e+0
vn 2.2166260e-17 1.2013689e-16 1.00000000
vn 2.2166260e-17 1.2013689e-16 1.00000000
vn 2.2166260e-17 1.2013689e-16 1.00000000
vn -0.70710678 0.70710678 0.0000000e+0
vn -0.70710678 0.70710678 0.0000000e+0
vn -0.55557023 0.83146961 0.0000000e+0
vn -0.55557023 0.83146961 0.0000000e+0
vn 1.9956135e-17 1.2270568e-16 1.00000000
vn 1.9956135e-17 1.2270568e-16 1.00000000
vn 1.9956135e-17 1.2270568e-16 1.00000000
vn -0.55557023 0.83146961 0.0000000e+0
vn -0.55557023 0.83146961 0.0000000e+0
vn 2.6259848e-17 1.2684687e-16 1.00000000
vn 2.6259848e-17 1.2684687e-16 1.00000000
vn 2.6259848e-17 1.2684687e-16 1.00000000
vn -0.38268343 0.92387953 0.0000000e+0
vn -0.38268343 0.92387953 0.0000000e+0
vn -0.19509032 0.98078528 0.0000000e+0
vn -0.19509032 0.98078528 0.0000000e+0
vn -1.7160689e-17 1.2274155e-16 1.00000000
vn -1.7160689e-17 1.2274155e-16 1.00000000
vn -1.7160689e-17 1.2274155e-16 1.00000000
vn -0.19509032 0.98078528 0.0000000e+0
vn -0.19509032 0.98078528 0.0000000e+0
vn -6.9520036e-18 1.2335746e-16 1.00000000
vn -6.9520036e-18 1.2335746e-16 1.00000000
vn -6.9520036e-18 1.2335746e-16 1.00000000
vn -5.7871486e-16 1.00000000 0.0000000e+0
vn -5.7871486e-16 1.00000000 0.0000000e+0
vn 0.19509032 0.98078528 0.0000000e+0
vn 0.19509032 0.98078528 0.0000000e+0
vn 5.3315312e-17 1.2181483e-16 1.00000000
vn 5.3315312e-17 1.2181483e-16 1.00000000
vn 5.3315312e-17 1.2181483e-16 1.00000000
vn 0.19509032 0.98078528 0.0000000e+0
vn 0.19509032 0.98078528 0.0000000e+0
vn 3.5217791e-17 1.2521092e-16 1.00000000
vn 3.5217791e-17 1.2521092e-16 1.00000000
vn 3.5217791e-17 1.2521092e-16 1.00000000
vn 0.38268343 0.92387953 0.0000000e+0
vn 0.38268343 0.92387953 0.0000000e+0
vn 0.55557023 0.83146961 0.0000000e+0
vn 0.55557023 0.83146961 0.0000000e+0
vn 5.8654857e-17 1.2601346e-16 1.00000000
vn 5.8654857e-17 1.2601346e-16 1.00000000
vn 5.8654857e-17 1.2601346e-16 1.00000000
vn 0.55557023 0.83146961 0.0000000e+0
vn 0.55557023 0.83146961 0.0000000e+0
vn 5.2224679e-17 1.2023131e-16 1.00000000
vn 5.2224679e-17 1.2023131e-16 1.00000000
vn 5.2224679e-17 1.2023131e-16 1.00000000
vn 0.70710678 0.70710678 0.0000000e+0
vn 0.70710678 0.70710678 0.0000000e+0
vn 0.83146961 0.55557023 0.0000000e+0
vn 0.83146961 0.55557023 0.0000000e+0
vn 8.5319160e-17 1.2251684e-16 1.00000000
vn 8.5319160e-17 1.2251684e-16 1.00000000
vn 8.5319160e-17 1.2251684e-16 1.00000000
vn 0.83146961 0.55557023 0.0000000e+0
vn 0.83146961 0.55557023 0.0000000e+0
vn 7.1654927e-17 1.2624921e-16 1.00000000
vn 7.1654927e-17 1.2624921e-16 1.00000000
vn 7.1654927e-17 1.2624921e-16 1.00000000
vn 0.92387953 0.38268343 0.0000000e+0
vn 0.92387953 0.38268343 0.0000000e+0
vn 2.3191230e-16 1.1344367e-16 1.00000000
vn 0.98078528 0.19509032 -4.1680777e-18
vn 0.98078528 0.19509032 -4.1680777e-18
vn 2.3191230e-16 1.1344367e-16 1.00000000
vn 2.3191230e-16 1.1344367e-16 1.00000000
vn 0.98078528 0.19509032 -4.1680777e-18
vn 0.98078528 0.19509032 -4.1680777e-18
vn 1.00000000 6.8330189e-16 9.2891937e-33
vn 1.00000000 6.8330189e-16 9.2891937e-33
vn -1.3882949e-15 -1.0670279e-16 -1.00000000
vn 1.00000000 6.8330189e-16 9.2891937e-33
vn 1.00000000 6.8330189e-16 9.2891937e-33
vn 0.98078528 -0.19509032 0.0000000e+0
vn 0.98078528 -0.19509032 0.0000000e+0
vn -4.4029366e-16 -1.1344367e-16 -1.00000000
vn -4.4029366e-16 -1.1344367e-16 -1.00000000
vn -4.4029366e-16 -1.1344367e-16 -1.00000000
vn 0.92387953 -0.38268343 0.0000000e+0
vn 0.92387953 -0.38268343 0.0000000e+0
vn -2.3444723e-17 -1.2624921e-16 -1.00000000
vn -2.3444723e-17 -1.2624921e-16 -1.00000000
vn -2.3444723e-17 -1.2624921e-16 -1.00000000
vn 0.92387953 -0.38268343 0.0000000e+0
vn 0.92387953 -0.38268343 0.0000000e+0
vn 0.83146961 -0.55557023 0.0000000e+0
vn 0.83146961 -0.55557023 0.0000000e+0
vn -3.1396648e-17 -1.2251684e-16 -1.00000000
vn -3.1396648e-17 -1.2251684e-16 -1.00000000
vn -3.1396648e-17 -1.2251684e-16 -1.00000000
vn 0.70710678 -0.70710678 0.0000000e+0
vn 0.70710678 -0.70710678 0.0000000e+0
vn -1.0531773e-16 -1.2023131e-16 -1.00000000
vn -1.0531773e-16 -1.2023131e-16 -1.00000000
vn -1.0531773e-16 -1.2023131e-16 -1.00000000
vn 0.70710678 -0.70710678 0.0000000e+0
vn 0.70710678 -0.70710678 0.0000000e+0
vn 0.55557023 -0.83146961 0.0000000e+0
vn 0.55557023 -0.83146961 0.0000000e+0
vn -5.2456170e-17 -1.2601346e-16 -1.00000000
vn -5.2456170e-17 -1.2601346e-16 -1.00000000
vn -5.2456170e-17 -1.2601346e-16 -1.00000000
vn 0.38268343 -0.92387953 0.0000000e+0
vn 0.38268343 -0.92387953 0.0000000e+0
vn 3.9455606e-18 -1.2521092e-16 -1.00000000
vn 3.9455606e-18 -1.2521092e-16 -1.00000000
vn 3.9455606e-18 -1.2521092e-16 -1.00000000
vn 0.38268343 -0.92387953 0.0000000e+0
vn 0.38268343 -0.92387953 0.0000000e+0
vn 0.19509032 -0.98078528 0.0000000e+0
vn 0.19509032 -0.98078528 0.0000000e+0
vn 2.4366151e-17 -1.2181483e-16 -1.00000000
vn 2.4366151e-17 -1.2181483e-16 -1.00000000
vn 2.4366151e-17 -1.2181483e-16 -1.00000000
vn -1.0458702e-17 -1.00000000 0.0000000e+0
vn -6.9724682e-18 -1.00000000 0.0000000e+0
vn -5.3191709e-17 -1.2335746e-16 -1.00000000
vn -5.3191709e-17 -1.2335746e-16 -1.00000000
vn -5.3191709e-17 -1.2335746e-16 -1.00000000
vn -1.0458702e-17 -1.00000000 0.0000000e+0
vn -1.0458702e-17 -1.00000000 0.0000000e+0
vn -0.19509032 -0.98078528 0.0000000e+0
vn -0.19509032 -0.98078528 0.0000000e+0
vn 7.4764959e-18 -1.2274155e-16 -1.00000000
vn 7.4764959e-18 -1.2274155e-16 -1.00000000
vn 7.4764959e-18 -1.2274155e-16 -1.00000000
vn -0.38268343 -0.92387953 0.0000000e+0
vn -0.38268343 -0.92387953 0.0000000e+0
vn -6.6676945e-18 -1.2684687e-16 -1.00000000
vn -6.6676945e-18 -1.2684687e-16 -1.00000000
vn -6.6676945e-18 -1.2684687e-16 -1.00000000
vn -0.38268343 -0.92387953 0.0000000e+0
vn -0.38268343 -0.92387953 0.0000000e+0
vn -0.55557023 -0.83146961 0.0000000e+0
vn -0.55557023 -0.83146961 0.0000000e+0
vn 1.2124582e-17 -1.2270568e-16 -1.00000000
vn 1.2124582e-17 -1.2270568e-16 -1.00000000
vn 1.2124582e-17 -1.2270568e-16 -1.00000000
vn -0.70710678 -0.70710678 0.0000000e+0
vn -0.70710678 -0.70710678 0.0000000e+0
vn 7.9636382e-17 -1.2013689e-16 -1.00000000
vn 7.9636382e-17 -1.2013689e-16 -1.00000000
vn 7.9636382e-17 -1.2013689e-16 -1.00000000
vn -0.70710678 -0.70710678 0.0000000e+0
vn -0.70710678 -0.70710678 0.0000000e+0
vn -0.83146961 -0.55557023 0.0000000e+0
vn -0.83146961 -0.55557023 0.0000000e+0
vn -9.2632157e-17 -1.2557300e-16 -1.00000000
vn -9.2632157e-17 -1.2557300e-16 -1.00000000
vn -9.2632157e-17 -1.2557300e-16 -1.00000000
vn -0.92387953 -0.38268343 0.0000000e+0
vn -0.92387953 -0.38268343 0.0000000e+0
vn -9.8107452e-17 -1.2018455e-16 -1.00000000
vn -9.8107452e-17 -1.2018455e-16 -1.00000000
vn -9.8107452e-17 -1.2018455e-16 -1.00000000
vn -0.92387953 -0.38268343 0.0000000e+0
vn -0.92387953 -0.38268343 0.0000000e+0
vn 9.2552995e-16 -1.0670279e-16 -1.00000000
vn -0.98078528 -0.19509032 0.0000000e+0
vn -0.98078528 -0.19509032 0.0000000e+0
vn 9.2552995e-16 -1.0670279e-16 -1.00000000
vn 1.8510599e-15 -1.0670279e-16 -1.00000000
vn -1.00000000 -2.4752262e-16 0.0000000e+0
vn -1.00000000 -2.5449509e-16 0.0000000e+0
vn -1.00000000 -2.5100886e-16 0.0000000e+0
vn -1.00000000 -2.4752262e-16 0.0000000e+0
vn 6.1701996e-16 -1.1344367e-16 -1.00000000
vn -0.98078528 0.19509032 0.0000000e+0
vn -0.98078528 0.19509032 0.0000000e+0
vn 6.1701996e-16 -1.1344367e-16 -1.00000000
vn 6.1701996e-16 -1.1344367e-16 -1.00000000
vn -0.92387953 0.38268343 0.0000000e+0
vn -0.92387953 0.38268343 0.0000000e+0
vn -1.0937038e-16 -1.2624921e-16 -1.00000000
vn -1.0937038e-16 -1.2624921e-16 -1.00000000
vn -1.0937038e-16 -1.2624921e-16 -1.00000000
vn -0.92387953 0.38268343 0.0000000e+0
vn -0.92387953 0.38268343 0.0000000e+0
vn -0.83146961 0.55557023 0.0000000e+0
vn -0.83146961 0.55557023 0.0000000e+0
vn 2.5202004e-17 -1.2251684e-16 -1.00000000
vn 2.5202004e-17 -1.2251684e-16 -1.00000000
vn 2.5202004e-17 -1.2251684e-16 -1.00000000
vn -0.70710678 0.70710678 0.0000000e+0
vn -0.70710678 0.70710678 0.0000000e+0
vn 7.2076730e-17 -1.2023131e-16 -1.00000000
vn 7.2076730e-17 -1.2023131e-16 -1.00000000
vn 7.2076730e-17 -1.2023131e-16 -1.00000000
vn -0.70710678 0.70710678 0.0000000e+0
vn -0.70710678 0.70710678 0.0000000e+0
vn -0.55557023 0.83146961 0.0000000e+0
vn -0.55557023 0.83146961 0.0000000e+0
vn 3.3449771e-18 -1.2601346e-16 -1.00000000
vn 3.3449771e-18 -1.2601346e-16 -1.00000000
vn 3.3449771e-18 -1.2601346e-16 -1.00000000
vn -0.38268343 0.92387953 0.0000000e+0
vn -0.38268343 0.92387953 0.0000000e+0
vn 3.3557743e-17 -1.2521092e-16 -1.00000000
vn 3.3557743e-17 -1.2521092e-16 -1.00000000
vn 3.3557743e-17 -1.2521092e-16 -1.00000000
vn -0.38268343 0.92387953 0.0000000e+0
vn -0.38268343 0.92387953 0.0000000e+0
vn -0.19509032 0.98078528 0.0000000e+0
vn -0.19509032 0.98078528 0.0000000e+0
vn -4.5040802e-17 -1.2181483e-16 -1.00000000
vn -4.5040802e-17 -1.2181483e-16 -1.00000000
vn -4.5040802e-17 -1.2181483e-16 -1.00000000
vn -5.6476993e-16 1.00000000 0.0000000e+0
vn -5.6825616e-16 1.00000000 0.0000000e+0
vn -2.9770946e-17 -1.2335746e-16 -1.00000000
vn -2.9770946e-17 -1.2335746e-16 -1.00000000
vn -2.9770946e-17 -1.2335746e-16 -1.00000000
vn -5.6825616e-16 1.00000000 0.0000000e+0
vn -5.6476993e-16 1.00000000 0.0000000e+0
vn 0.19509032 0.98078528 0.0000000e+0
vn 0.19509032 0.98078528 0.0000000e+0
vn 5.9208176e-17 -1.2274155e-16 -1.00000000
vn 5.9208176e-17 -1.2274155e-16 -1.00000000
vn 5.9208176e-17 -1.2274155e-16 -1.00000000
vn 0.38268343 0.92387953 0.0000000e+0
vn 0.38268343 0.92387953 0.0000000e+0
vn 2.9306393e-17 -1.2684687e-16 -1.00000000
vn 2.9306393e-17 -1.2684687e-16 -1.00000000
vn 2.9306393e-17 -1.2684687e-16 -1.00000000
vn 0.38268343 0.92387953 0.0000000e+0
vn 0.38268343 0.92387953 0.0000000e+0
vn 0.55557023 0.83146961 0.0000000e+0
vn 0.55557023 0.83146961 0.0000000e+0
vn -3.9717772e-17 -1.2270568e-16 -1.00000000
vn -3.9717772e-17 -1.2270568e-16 -1.00000000
vn -3.9717772e-17 -1.2270568e-16 -1.00000000
vn 0.70710678 0.70710678 0.0000000e+0
vn 0.70710678 0.70710678 0.0000000e+0
vn -8.4007158e-18 -1.2013689e-16 -1.00000000
vn -8.4007158e-18 -1.2013689e-16 -1.00000000
vn -8.4007158e-18 -1.2013689e-16 -1.00000000
vn 0.70710678 0.70710678 0.0000000e+0
vn 0.70710678 0.70710678 0.0000000e+0
vn 0.83146961 0.55557023 0.0000000e+0
vn 0.83146961 0.55557023 0.0000000e+0
vn 2.0427167e-16 -1.2557300e-16 -1.00000000
vn 2.0427167e-16 -1.2557300e-16 -1.00000000
vn 2.0427167e-16 -1.2557300e-16 -1.00000000
vn 0.92387953 0.38268343 0.0000000e+0
vn 0.92387953 0.38268343 0.0000000e+0
vn 2.1868622e-16 -1.2018455e-16 -1.00000000
vn 2.1868622e-16 -1.2018455e-16 -1.00000000
vn 2.1868622e-16 -1.2018455e-16 -1.00000000
vn 0.92387953 0.38268343 0.0000000e+0
vn 0.92387953 0.38268343 0.0000000e+0
vn 0.98078528 0.19509032 0.0000000e+0
vn 0.98078528 0.19509032 0.0000000e+0
vn -3.8163424e-16 -1.0670279e-16 -1.00000000
vn -3.8163424e-16 -1.0670279e-16 -1.00000000
g cylinder1_item/coin/coin
s 1
f 1/145/1 32/144/180 2/141/4
f 2/141/7 32/144/184 3/137/11
f 3/137/12 31/140/177 4/133/18
f 4/133/19 30/136/172 5/129/23
f 5/129/24 29/132/165 6/125/30
f 6/125/31 28/128/160 7/121/35
f 7/121/36 27/124/153 8/117/42
f 8/117/43 26/120/148 9/113/47
f 9/113/48 25/116/141 10/109/54
f 10/109/55 24/112/136 11/105/59
f 11/105/60 23/108/129 12/101/66
f 12/101/67 22/104/124 13/97/71
f 13/97/72 21/100/117 14/41/78
f 14/41/79 20/44/112 15/37/83
f 15/37/84 19/40/105 16/33/90
f 16/33/91 18/36/100 17/17/94
f 18/36/99 16/33/89 19/40/104
f 19/40/103 15/37/82 20/44/111
f 20/44/110 14/41/77 21/100/116
f 21/100/115 13/97/70 22/104/123
f 22/104/122 12/101/65 23/108/128
f 23/108/127 11/105/58 24/112/135
f 24/112/134 10/109/53 25/116/140
f 25/116/139 9/113/46 26/120/147
f 26/120/146 8/117/41 27/124/152
f 27/124/151 7/121/34 28/128/159
f 28/128/158 6/125/29 29/132/164
f 29/132/163 5/129/22 30/136/171
f 30/136/170 4/133/17 31/140/176
f 31/140/175 3/137/10 32/144/183
f 34/34/196 64/35/372 33/16/189
f 35/38/199 63/39/364 34/34/194
f 36/42/206 62/43/359 35/38/200
f 37/99/211 61/98/352 36/42/207
f 38/102/218 60/103/347 37/99/212
f 39/107/223 59/106/340 38/102/219
f 40/110/230 58/111/335 39/107/224
f 41/114/235 57/115/328 40/110/231
f 42/118/242 56/119/323 41/114/236
f 43/122/247 55/123/316 42/118/243
f 44/126/254 54/127/311 43/122/248
f 45/130/259 53/131/304 44/126/255
f 46/134/266 52/135/299 45/130/260
f 47/138/271 51/139/292 46/134/267
f 48/142/279 50/143/288 47/138/272
f 49/146/280 50/143/285 48/142/276
f 51/139/294 47/138/273 50/143/289
f 52/135/301 46/134/268 51/139/293
f 53/131/306 45/130/261 52/135/300
f 54/127/313 44/126/256 53/131/305
f 55/123/318 43/122/249 54/127/312
f 56/119/325 42/118/244 55/123/317
f 57/115/330 41/114/237 56/119/324
f 58/111/337 40/110/232 57/115/329
f 59/106/342 39/107/225 58/111/336
f 60/103/349 38/102/220 59/106/341
f 61/98/354 37/99/213 60/103/348
f 62/43/361 36/42/208 61/98/353
f 63/39/366 35/38/201 62/43/360
f 64/35/371 34/34/195 63/39/365
s 2
f 1/12/2 33/1/190 32/82/185
f 2/8/8 33/74/191 1/75/3
f 2/64/5 35/1/198 34/62/192
f 3/6/13 35/1/202 2/64/9
f 4/27/20 35/62/203 3/65/14
f 4/88/15 37/1/210 36/69/204
f 5/30/25 37/1/214 4/88/21
f 6/96/32 37/14/215 5/32/26
f 6/28/27 39/61/222 38/11/216
f 7/66/37 39/61/226 6/28/33
f 8/67/44 39/15/227 7/19/38
f 8/1/39 41/72/234 40/23/228
f 9/78/49 41/72/238 8/1/45
f 10/62/56 41/9/239 9/18/50
f 10/20/51 43/60/246 42/9/240
f 11/69/61 43/60/250 10/20/57
f 12/58/68 43/10/251 11/21/62
f 12/1/63 45/54/258 44/7/252
f 13/95/73 45/54/262 12/1/69
f 14/5/80 45/90/263 13/56/74
f 14/57/75 47/1/270 46/52/264
f 15/11/85 47/1/274 14/57/81
f 16/22/92 47/68/275 15/71/86
f 16/86/87 49/2/282 48/68/277
f 17/27/95 49/2/283 16/86/93
f 18/25/101 49/70/284 17/89/96
f 18/77/97 51/2/291 50/51/286
f 19/31/106 51/2/295 18/77/102
f 20/12/113 51/45/296 19/65/107
f 20/80/108 53/1/303 52/79/297
f 21/8/118 53/1/307 20/80/114
f 22/93/125 53/29/308 21/1/119
f 22/1/120 55/50/315 54/8/309
f 23/45/130 55/50/319 22/1/126
f 24/51/137 55/26/320 23/2/131
f 24/1/132 57/83/327 56/24/321
f 25/81/142 57/83/331 24/1/138
f 26/85/149 57/6/332 25/1/143
f 26/1/144 59/63/339 58/12/333
f 27/62/154 59/63/343 26/1/150
f 28/48/161 59/4/344 27/1/155
f 28/2/156 61/53/351 60/13/345
f 29/73/166 61/53/355 28/2/162
f 30/9/173 61/49/356 29/92/167
f 30/47/168 63/1/363 62/46/357
f 31/7/178 63/1/367 30/47/174
f 32/82/181 33/1/187 64/62/369
f 32/27/186 63/73/368 31/77/179
f 34/1/193 33/74/188 2/8/6
f 36/3/205 35/62/197 4/27/16
f 38/91/217 37/14/209 6/96/28
f 40/84/229 39/15/221 8/67/40
f 42/55/241 41/9/233 10/62/52
f 44/59/253 43/10/245 12/58/64
f 46/1/265 45/90/257 14/5/76
f 48/1/278 47/68/269 16/22/88
f 50/1/287 49/70/281 18/25/98
f 52/2/298 51/45/290 20/12/109
f 54/94/310 53/29/302 22/93/121
f 56/76/322 55/26/314 24/51/133
f 58/87/334 57/6/326 26/85/145
f 60/50/346 59/4/338 28/48/157
f 62/1/358 61/49/350 30/9/169
f 64/3/370 63/73/362 32/27/182
=======
# Exported from Wings 3D 0.99.00b
mtllib coin.mtl
o cylinder1
#64 vertices, 124 faces
v 0.15000000 -5.4672250e-18 1.0000000e-2
v 0.14711779 -2.9263548e-2 1.0000000e-2
v 0.13858193 -5.7402515e-2 1.0000000e-2
v 0.12472044 -8.3335535e-2 1.0000000e-2
v 0.10606602 -0.10606602 1.0000000e-2
v 8.3335535e-2 -0.12472044 1.0000000e-2
v 5.7402515e-2 -0.13858193 1.0000000e-2
v 2.9263548e-2 -0.14711779 1.0000000e-2
v 9.1845477e-18 -0.15000000 1.0000000e-2
v -2.9263548e-2 -0.14711779 1.0000000e-2
v -5.7402515e-2 -0.13858193 1.0000000e-2
v -8.3335535e-2 -0.12472044 1.0000000e-2
v -0.10606602 -0.10606602 1.0000000e-2
v -0.12472044 -8.3335535e-2 1.0000000e-2
v -0.13858193 -5.7402515e-2 1.0000000e-2
v -0.14711779 -2.9263548e-2 1.0000000e-2
v -0.15000000 -2.3836320e-17 1.0000000e-2
v -0.14711779 2.9263548e-2 1.0000000e-2
v -0.13858193 5.7402515e-2 1.0000000e-2
v -0.12472044 8.3335535e-2 1.0000000e-2
v -0.10606602 0.10606602 1.0000000e-2
v -8.3335535e-2 0.12472044 1.0000000e-2
v -5.7402515e-2 0.13858193 1.0000000e-2
v -2.9263548e-2 0.14711779 1.0000000e-2
v -2.7553643e-17 0.15000000 1.0000000e-2
v 2.9263548e-2 0.14711779 1.0000000e-2
v 5.7402515e-2 0.13858193 1.0000000e-2
v 8.3335535e-2 0.12472044 1.0000000e-2
v 0.10606602 0.10606602 1.0000000e-2
v 0.12472044 8.3335535e-2 1.0000000e-2
v 0.13858193 5.7402515e-2 1.0000000e-2
v 0.14711779 2.9263548e-2 1.0000000e-2
v 0.15000000 -6.0795282e-18 -1.0000000e-2
v 0.14711779 -2.9263548e-2 -1.0000000e-2
v 0.13858193 -5.7402515e-2 -1.0000000e-2
v 0.12472044 -8.3335535e-2 -1.0000000e-2
v 0.10606602 -0.10606602 -1.0000000e-2
v 8.3335535e-2 -0.12472044 -1.0000000e-2
v 5.7402515e-2 -0.13858193 -1.0000000e-2
v 2.9263548e-2 -0.14711779 -1.0000000e-2
v 9.1845477e-18 -0.15000000 -1.0000000e-2
v -2.9263548e-2 -0.14711779 -1.0000000e-2
v -5.7402515e-2 -0.13858193 -1.0000000e-2
v -8.3335535e-2 -0.12472044 -1.0000000e-2
v -0.10606602 -0.10606602 -1.0000000e-2
v -0.12472044 -8.3335535e-2 -1.0000000e-2
v -0.13858193 -5.7402515e-2 -1.0000000e-2
v -0.14711779 -2.9263548e-2 -1.0000000e-2
v -0.15000000 -2.4448623e-17 -1.0000000e-2
v -0.14711779 2.9263548e-2 -1.0000000e-2
v -0.13858193 5.7402515e-2 -1.0000000e-2
v -0.12472044 8.3335535e-2 -1.0000000e-2
v -0.10606602 0.10606602 -1.0000000e-2
v -8.3335535e-2 0.12472044 -1.0000000e-2
v -5.7402515e-2 0.13858193 -1.0000000e-2
v -2.9263548e-2 0.14711779 -1.0000000e-2
v -2.7553643e-17 0.15000000 -1.0000000e-2
v 2.9263548e-2 0.14711779 -1.0000000e-2
v 5.7402515e-2 0.13858193 -1.0000000e-2
v 8.3335535e-2 0.12472044 -1.0000000e-2
v 0.10606602 0.10606602 -1.0000000e-2
v 0.12472044 8.3335535e-2 -1.0000000e-2
v 0.13858193 5.7402515e-2 -1.0000000e-2
v 0.14711779 2.9263548e-2 -1.0000000e-2
vt -5.6148763e-19 0.32996171
vt 0.0000000e+0 0.32996171
vt 0.0000000e+0 0.32996171
vt 0.0000000e+0 0.32996171
vt 0.0000000e+0 0.32996171
vt 0.0000000e+0 0.32996171
vt 0.0000000e+0 0.32996171
vt 0.0000000e+0 0.32996171
vt 0.0000000e+0 0.32996171
vt 0.0000000e+0 0.50000000
vt 0.0000000e+0 0.50000000
vt 0.0000000e+0 0.67003829
vt 0.0000000e+0 0.67003829
vt 0.0000000e+0 0.67003829
vt 0.0000000e+0 0.67003829
vt 0.0000000e+0 0.67003829
vt 0.0000000e+0 0.67003829
vt 0.0000000e+0 0.67003829
vt 0.0000000e+0 0.67003829
vt 0.0000000e+0 0.67003829
vt 4.9303807e-32 0.32996171
vt 4.9303807e-32 0.67003829
vt 1.9721523e-31 0.32996171
vt 5.5511151e-17 0.32996171
vt 5.5511151e-17 0.32996171
vt 5.5511151e-17 0.67003829
vt 5.5511151e-17 0.67003829
vt 1.1102230e-16 0.32996171
vt 1.1102230e-16 0.32996171
vt 1.1158379e-16 0.67003829
vt 1.1214528e-16 0.32996171
vt 1.1214528e-16 0.67003829
vt 1.6653345e-16 0.32996171
vt 2.2204460e-16 0.32996171
vt 2.2204460e-16 0.32996171
vt 2.2204460e-16 0.32996171
vt 2.2204460e-16 0.32996171
vt 2.2204460e-16 0.67003829
vt 3.9250847e-16 0.67003829
vt 4.4408921e-16 0.32996171
vt 4.4408921e-16 0.32996171
vt 4.4408921e-16 0.32996171
vt 4.4408921e-16 0.32996171
vt 4.4408921e-16 0.67003829
vt 9.6073598e-3 0.40245484
vt 9.6073598e-3 0.40245484
vt 9.6073598e-3 0.59754516
vt 9.6073598e-3 0.59754516
vt 3.8060234e-2 0.30865828
vt 3.8060234e-2 0.30865828
vt 3.8060234e-2 0.69134172
vt 3.8060234e-2 0.69134172
vt 8.4265194e-2 0.77778512
vt 8.4265194e-2 0.22221488
vt 8.4265194e-2 0.22221488
vt 8.4265194e-2 0.77778512
vt 0.14644661 0.85355339
vt 0.14644661 0.14644661
vt 0.14644661 0.14644661
vt 0.14644661 0.85355339
vt 0.22221488 0.91573481
vt 0.22221488 8.4265194e-2
vt 0.22221488 0.91573481
vt 0.22221488 8.4265194e-2
vt 0.30865828 0.96193977
vt 0.30865828 0.96193977
vt 0.30865828 3.8060234e-2
vt 0.30865828 3.8060234e-2
vt 0.40245484 0.99039264
vt 0.40245484 0.99039264
vt 0.40245484 9.6073598e-3
vt 0.40245484 9.6073598e-3
vt 0.50000000 1.00000000
vt 0.50000000 0.0000000e+0
vt 0.50000000 0.0000000e+0
vt 0.50000000 1.00000000
vt 0.59754516 9.6073598e-3
vt 0.59754516 0.99039264
vt 0.59754516 9.6073598e-3
vt 0.59754516 0.99039264
vt 0.69134172 3.8060234e-2
vt 0.69134172 3.8060234e-2
vt 0.69134172 0.96193977
vt 0.69134172 0.96193977
vt 0.77778512 0.91573481
vt 0.77778512 8.4265194e-2
vt 0.77778512 0.91573481
vt 0.77778512 8.4265194e-2
vt 0.85355339 0.14644661
vt 0.85355339 0.85355339
vt 0.85355339 0.85355339
vt 0.91573481 0.22221488
vt 0.91573481 0.22221488
vt 0.91573481 0.77778512
vt 0.96193977 0.69134172
vt 0.96193977 0.30865828
vt 0.96193977 0.30865828
vt 0.96193977 0.69134172
vt 0.99039264 0.59754516
vt 0.99039264 0.40245484
vt 0.99039264 0.40245484
vt 0.99039264 0.59754516
vt 1.00000000 0.67003829
vt 1.00000000 0.32996171
vt 1.00000000 0.67003829
vt 1.00000000 0.67003829
vt 1.00000000 0.67003829
vt 1.00000000 0.32996171
vt 1.00000000 0.67003829
vt 1.00000000 0.32996171
vt 1.00000000 0.32996171
vt 1.00000000 0.32996171
vt 1.00000000 0.32996171
vt 1.00000000 0.32996171
vt 1.00000000 0.32996171
vt 1.00000000 0.32996171
vt 1.00000000 0.32996171
vt 1.00000000 0.32996171
vt 1.00000000 0.32996171
vt 1.00000000 0.32996171
vt 1.00000000 0.32996171
vt 1.00000000 0.32996171
vt 1.00000000 0.32996171
vt 1.00000000 0.32996171
vt 1.00000000 0.32996171
vt 1.00000000 0.50000000
vt 1.00000000 0.67003829
vt 1.00000000 0.67003829
vt 1.00000000 0.67003829
vt 1.00000000 0.67003829
vt 1.00000000 0.67003829
vt 1.00000000 0.67003829
vt 1.00000000 0.67003829
vt 1.00000000 0.67003829
vn 6.4272913e-16 1.1855866e-16 1.00000000
vn 1.00000000 1.0807326e-15 0.0000000e+0
vn 1.00000000 1.0807326e-15 0.0000000e+0
vn 3.2136456e-16 1.1855866e-16 1.00000000
vn 0.98078528 -0.19509032 0.0000000e+0
vn 0.98078528 -0.19509032 0.0000000e+0
vn 3.2136456e-16 1.1855866e-16 1.00000000
vn 0.98078528 -0.19509032 0.0000000e+0
vn 0.98078528 -0.19509032 0.0000000e+0
vn 9.6468325e-17 1.2010712e-16 1.00000000
vn 9.6468325e-17 1.2010712e-16 1.00000000
vn 9.6468325e-17 1.2010712e-16 1.00000000
vn 0.92387953 -0.38268343 0.0000000e+0
vn 0.92387953 -0.38268343 0.0000000e+0
vn 0.83146961 -0.55557023 0.0000000e+0
vn 0.83146961 -0.55557023 0.0000000e+0
vn -1.6614246e-17 1.2355831e-16 1.00000000
vn -1.6614246e-17 1.2355831e-16 1.00000000
vn -1.6614246e-17 1.2355831e-16 1.00000000
vn 0.83146961 -0.55557023 0.0000000e+0
vn 0.83146961 -0.55557023 0.0000000e+0
vn -9.6613094e-18 1.1795620e-16 1.00000000
vn -9.6613094e-18 1.1795620e-16 1.00000000
vn -9.6613094e-18 1.1795620e-16 1.00000000
vn 0.70710678 -0.70710678 0.0000000e+0
vn 0.70710678 -0.70710678 0.0000000e+0
vn 0.55557023 -0.83146961 0.0000000e+0
vn 0.55557023 -0.83146961 0.0000000e+0
vn 1.8316588e-17 1.2161534e-16 1.00000000
vn 1.8316588e-17 1.2161534e-16 1.00000000
vn 1.8316588e-17 1.2161534e-16 1.00000000
vn 0.55557023 -0.83146961 0.0000000e+0
vn 0.55557023 -0.83146961 0.0000000e+0
vn -6.7698328e-17 1.2517785e-16 1.00000000
vn -6.7698328e-17 1.2517785e-16 1.00000000
vn -6.7698328e-17 1.2517785e-16 1.00000000
vn 0.38268343 -0.92387953 0.0000000e+0
vn 0.38268343 -0.92387953 0.0000000e+0
vn 0.19509032 -0.98078528 0.0000000e+0
vn 0.19509032 -0.98078528 0.0000000e+0
vn 7.9007256e-17 1.2033486e-16 1.00000000
vn 7.9007256e-17 1.2033486e-16 1.00000000
vn 7.9007256e-17 1.2033486e-16 1.00000000
vn 0.19509032 -0.98078528 0.0000000e+0
vn 0.19509032 -0.98078528 0.0000000e+0
vn -4.6237023e-17 1.2411334e-16 1.00000000
vn -4.6237023e-17 1.2411334e-16 1.00000000
vn -4.6237023e-17 1.2411334e-16 1.00000000
vn -1.3944936e-17 -1.00000000 0.0000000e+0
vn -1.3944936e-17 -1.00000000 0.0000000e+0
vn -0.19509032 -0.98078528 0.0000000e+0
vn -0.19509032 -0.98078528 0.0000000e+0
vn -2.4745449e-17 1.2101363e-16 1.00000000
vn -2.4745449e-17 1.2101363e-16 1.00000000
vn -2.4745449e-17 1.2101363e-16 1.00000000
vn -0.19509032 -0.98078528 0.0000000e+0
vn -0.19509032 -0.98078528 0.0000000e+0
vn 4.9450190e-18 1.2275580e-16 1.00000000
vn 4.9450190e-18 1.2275580e-16 1.00000000
vn 4.9450190e-18 1.2275580e-16 1.00000000
vn -0.38268343 -0.92387953 0.0000000e+0
vn -0.38268343 -0.92387953 0.0000000e+0
vn -0.55557023 -0.83146961 0.0000000e+0
vn -0.55557023 -0.83146961 0.0000000e+0
vn 2.4188508e-17 1.2517895e-16 1.00000000
vn 2.4188508e-17 1.2517895e-16 1.00000000
vn 2.4188508e-17 1.2517895e-16 1.00000000
vn -0.55557023 -0.83146961 0.0000000e+0
vn -0.55557023 -0.83146961 0.0000000e+0
vn -3.2348329e-17 1.1805062e-16 1.00000000
vn -3.2348329e-17 1.1805062e-16 1.00000000
vn -3.2348329e-17 1.1805062e-16 1.00000000
vn -0.70710678 -0.70710678 0.0000000e+0
vn -0.70710678 -0.70710678 0.0000000e+0
vn -0.83146961 -0.55557023 0.0000000e+0
vn -0.83146961 -0.55557023 0.0000000e+0
vn -1.6888476e-17 1.2142650e-16 1.00000000
vn -1.6888476e-17 1.2142650e-16 1.00000000
vn -1.6888476e-17 1.2142650e-16 1.00000000
vn -0.83146961 -0.55557023 0.0000000e+0
vn -0.83146961 -0.55557023 0.0000000e+0
vn 3.8318139e-17 1.2221984e-16 1.00000000
vn 3.8318139e-17 1.2221984e-16 1.00000000
vn 3.8318139e-17 1.2221984e-16 1.00000000
vn -0.92387953 -0.38268343 0.0000000e+0
vn -0.92387953 -0.38268343 0.0000000e+0
vn -0.98078528 -0.19509032 0.0000000e+0
vn -0.98078528 -0.19509032 0.0000000e+0
vn -1.0922016e-16 1.1933289e-16 1.00000000
vn -1.0922016e-16 1.1933289e-16 1.00000000
vn -1.0922016e-16 1.1933289e-16 1.00000000
vn -0.98078528 -0.19509032 0.0000000e+0
vn -0.98078528 -0.19509032 0.0000000e+0
vn 0.0000000e+0 1.1855866e-16 1.00000000
vn -1.00000000 -2.7889873e-16 0.0000000e+0
vn -1.00000000 -2.7889873e-16 0.0000000e+0
vn -0.98078528 0.19509032 0.0000000e+0
vn -0.98078528 0.19509032 0.0000000e+0
vn -1.0851153e-16 1.1855866e-16 1.00000000
vn -1.0851153e-16 1.1855866e-16 1.00000000
vn -0.98078528 0.19509032 0.0000000e+0
vn -0.98078528 0.19509032 0.0000000e+0
vn -1.8379923e-17 1.2010712e-16 1.00000000
vn -1.8379923e-17 1.2010712e-16 1.00000000
vn -1.8379923e-17 1.2010712e-16 1.00000000
vn -0.92387953 0.38268343 0.0000000e+0
vn -0.92387953 0.38268343 0.0000000e+0
vn -0.83146961 0.55557023 0.0000000e+0
vn -0.83146961 0.55557023 0.0000000e+0
vn 6.9385389e-17 1.2355831e-16 1.00000000
vn 6.9385389e-17 1.2355831e-16 1.00000000
vn 6.9385389e-17 1.2355831e-16 1.00000000
vn -0.83146961 0.55557023 0.0000000e+0
vn -0.83146961 0.55557023 0.0000000e+0
vn -3.4973208e-17 1.1795620e-16 1.00000000
vn -3.4973208e-17 1.1795620e-16 1.00000000
vn -3.4973208e-17 1.1795620e-16 1.00000000
vn -0.70710678 0.70710678 0.0000000e+0
vn -0.70710678 0.70710678 0.0000000e+0
vn -0.55557023 0.83146961 0.0000000e+0
vn -0.55557023 0.83146961 0.0000000e+0
vn -1.4567232e-17 1.2161534e-16 1.00000000
vn -1.4567232e-17 1.2161534e-16 1.00000000
vn -1.4567232e-17 1.2161534e-16 1.00000000
vn -0.55557023 0.83146961 0.0000000e+0
vn -0.55557023 0.83146961 0.0000000e+0
vn 4.4752542e-17 1.2517785e-16 1.00000000
vn 4.4752542e-17 1.2517785e-16 1.00000000
vn 4.4752542e-17 1.2517785e-16 1.00000000
vn -0.38268343 0.92387953 0.0000000e+0
vn -0.38268343 0.92387953 0.0000000e+0
vn -0.19509032 0.98078528 0.0000000e+0
vn -0.19509032 0.98078528 0.0000000e+0
vn 3.5856091e-17 1.2033486e-16 1.00000000
vn 3.5856091e-17 1.2033486e-16 1.00000000
vn 3.5856091e-17 1.2033486e-16 1.00000000
vn -0.19509032 0.98078528 0.0000000e+0
vn -0.19509032 0.98078528 0.0000000e+0
vn -5.4369232e-17 1.2411334e-16 1.00000000
vn -5.4369232e-17 1.2411334e-16 1.00000000
vn -5.4369232e-17 1.2411334e-16 1.00000000
vn -4.5321044e-16 1.00000000 0.0000000e+0
vn -4.5321044e-16 1.00000000 0.0000000e+0
vn 0.19509032 0.98078528 0.0000000e+0
vn 0.19509032 0.98078528 0.0000000e+0
vn 5.0458913e-17 1.2101363e-16 1.00000000
vn 5.0458913e-17 1.2101363e-16 1.00000000
vn 5.0458913e-17 1.2101363e-16 1.00000000
vn 0.19509032 0.98078528 0.0000000e+0
vn 0.19509032 0.98078528 0.0000000e+0
vn -2.5400635e-17 1.2275580e-16 1.00000000
vn -2.5400635e-17 1.2275580e-16 1.00000000
vn -2.5400635e-17 1.2275580e-16 1.00000000
vn 0.38268343 0.92387953 0.0000000e+0
vn 0.38268343 0.92387953 0.0000000e+0
vn 0.55557023 0.83146961 0.0000000e+0
vn 0.55557023 0.83146961 0.0000000e+0
vn -4.5447610e-18 1.2517895e-16 1.00000000
vn -4.5447610e-18 1.2517895e-16 1.00000000
vn -4.5447610e-18 1.2517895e-16 1.00000000
vn 0.55557023 0.83146961 0.0000000e+0
vn 0.55557023 0.83146961 0.0000000e+0
vn 1.1709224e-17 1.1805062e-16 1.00000000
vn 1.1709224e-17 1.1805062e-16 1.00000000
vn 1.1709224e-17 1.1805062e-16 1.00000000
vn 0.70710678 0.70710678 0.0000000e+0
vn 0.70710678 0.70710678 0.0000000e+0
vn 0.83146961 0.55557023 0.0000000e+0
vn 0.83146961 0.55557023 0.0000000e+0
vn -3.4757937e-17 1.2142650e-16 1.00000000
vn -3.4757937e-17 1.2142650e-16 1.00000000
vn -3.4757937e-17 1.2142650e-16 1.00000000
vn 0.83146961 0.55557023 0.0000000e+0
vn 0.83146961 0.55557023 0.0000000e+0
vn 3.3896484e-17 1.2221984e-16 1.00000000
vn 3.3896484e-17 1.2221984e-16 1.00000000
vn 3.3896484e-17 1.2221984e-16 1.00000000
vn 0.92387953 0.38268343 0.0000000e+0
vn 0.92387953 0.38268343 0.0000000e+0
vn 2.8800131e-16 1.1933289e-16 1.00000000
vn 0.98078528 0.19509032 0.0000000e+0
vn 0.98078528 0.19509032 0.0000000e+0
vn 2.8800131e-16 1.1933289e-16 1.00000000
vn 2.8800131e-16 1.1933289e-16 1.00000000
vn 0.98078528 0.19509032 0.0000000e+0
vn 0.98078528 0.19509032 0.0000000e+0
vn 1.00000000 1.1504573e-16 0.0000000e+0
vn 1.00000000 1.1155949e-16 0.0000000e+0
vn 6.4272913e-16 -1.1855866e-16 -1.00000000
vn 1.00000000 1.1504573e-16 0.0000000e+0
vn 1.00000000 1.1155949e-16 0.0000000e+0
vn 0.98078528 -0.19509032 0.0000000e+0
vn 0.98078528 -0.19509032 0.0000000e+0
vn 7.0978242e-17 -1.1933289e-16 -1.00000000
vn 7.0978242e-17 -1.1933289e-16 -1.00000000
vn 7.0978242e-17 -1.1933289e-16 -1.00000000
vn 0.92387953 -0.38268343 0.0000000e+0
vn 0.92387953 -0.38268343 0.0000000e+0
vn 5.6606543e-17 -1.2221984e-16 -1.00000000
vn 5.6606543e-17 -1.2221984e-16 -1.00000000
vn 5.6606543e-17 -1.2221984e-16 -1.00000000
vn 0.92387953 -0.38268343 0.0000000e+0
vn 0.92387953 -0.38268343 0.0000000e+0
vn 0.83146961 -0.55557023 0.0000000e+0
vn 0.83146961 -0.55557023 0.0000000e+0
vn -4.9288433e-17 -1.2142650e-16 -1.00000000
vn -4.9288433e-17 -1.2142650e-16 -1.00000000
vn -4.9288433e-17 -1.2142650e-16 -1.00000000
vn 0.70710678 -0.70710678 0.0000000e+0
vn 0.70710678 -0.70710678 0.0000000e+0
vn 5.7895039e-17 -1.1805062e-16 -1.00000000
vn 5.7895039e-17 -1.1805062e-16 -1.00000000
vn 5.7895039e-17 -1.1805062e-16 -1.00000000
vn 0.70710678 -0.70710678 0.0000000e+0
vn 0.70710678 -0.70710678 0.0000000e+0
vn 0.55557023 -0.83146961 0.0000000e+0
vn 0.55557023 -0.83146961 0.0000000e+0
vn -3.0498113e-17 -1.2517895e-16 -1.00000000
vn -3.0498113e-17 -1.2517895e-16 -1.00000000
vn -3.0498113e-17 -1.2517895e-16 -1.00000000
vn 0.38268343 -0.92387953 0.0000000e+0
vn 0.38268343 -0.92387953 0.0000000e+0
vn -2.2015834e-17 -1.2275580e-16 -1.00000000
vn -2.2015834e-17 -1.2275580e-16 -1.00000000
vn -2.2015834e-17 -1.2275580e-16 -1.00000000
vn 0.38268343 -0.92387953 0.0000000e+0
vn 0.38268343 -0.92387953 0.0000000e+0
vn 0.19509032 -0.98078528 0.0000000e+0
vn 0.19509032 -0.98078528 0.0000000e+0
vn -8.7803294e-18 -1.2101363e-16 -1.00000000
vn -8.7803294e-18 -1.2101363e-16 -1.00000000
vn -8.7803294e-18 -1.2101363e-16 -1.00000000
vn -1.0458702e-17 -1.00000000 0.0000000e+0
vn -1.0458702e-17 -1.00000000 0.0000000e+0
vn -5.1776401e-17 -1.2411334e-16 -1.00000000
vn -5.1776401e-17 -1.2411334e-16 -1.00000000
vn -5.1776401e-17 -1.2411334e-16 -1.00000000
vn -6.9724682e-18 -1.00000000 0.0000000e+0
vn -1.0458702e-17 -1.00000000 0.0000000e+0
vn -0.19509032 -0.98078528 0.0000000e+0
vn -0.19509032 -0.98078528 0.0000000e+0
vn 6.3529490e-17 -1.2033486e-16 -1.00000000
vn 6.3529490e-17 -1.2033486e-16 -1.00000000
vn 6.3529490e-17 -1.2033486e-16 -1.00000000
vn -0.38268343 -0.92387953 0.0000000e+0
vn -0.38268343 -0.92387953 0.0000000e+0
vn 1.3170431e-17 -1.2517785e-16 -1.00000000
vn 1.3170431e-17 -1.2517785e-16 -1.00000000
vn 1.3170431e-17 -1.2517785e-16 -1.00000000
vn -0.38268343 -0.92387953 0.0000000e+0
vn -0.38268343 -0.92387953 0.0000000e+0
vn -0.55557023 -0.83146961 0.0000000e+0
vn -0.55557023 -0.83146961 0.0000000e+0
vn -1.7008478e-17 -1.2161534e-16 -1.00000000
vn -1.7008478e-17 -1.2161534e-16 -1.00000000
vn -1.7008478e-17 -1.2161534e-16 -1.00000000
vn -0.70710678 -0.70710678 0.0000000e+0
vn -0.70710678 -0.70710678 0.0000000e+0
vn 1.2072384e-17 -1.1795620e-16 -1.00000000
vn 1.2072384e-17 -1.1795620e-16 -1.00000000
vn 1.2072384e-17 -1.1795620e-16 -1.00000000
vn -0.70710678 -0.70710678 0.0000000e+0
vn -0.70710678 -0.70710678 0.0000000e+0
vn -0.83146961 -0.55557023 0.0000000e+0
vn -0.83146961 -0.55557023 0.0000000e+0
vn -1.7926919e-18 -1.2355831e-16 -1.00000000
vn -1.7926919e-18 -1.2355831e-16 -1.00000000
vn -1.7926919e-18 -1.2355831e-16 -1.00000000
vn -0.92387953 -0.38268343 0.0000000e+0
vn -0.92387953 -0.38268343 0.0000000e+0
vn 1.4172444e-18 -1.2010712e-16 -1.00000000
vn 1.4172444e-18 -1.2010712e-16 -1.00000000
vn 1.4172444e-18 -1.2010712e-16 -1.00000000
vn -0.92387953 -0.38268343 0.0000000e+0
vn -0.92387953 -0.38268343 0.0000000e+0
vn -4.2987610e-16 -1.1855866e-16 -1.00000000
vn -0.98078528 -0.19509032 0.0000000e+0
vn -0.98078528 -0.19509032 0.0000000e+0
vn -4.2987610e-16 -1.1855866e-16 -1.00000000
vn -6.4272913e-16 -1.1855866e-16 -1.00000000
vn -1.00000000 -1.3596313e-16 0.0000000e+0
vn -1.00000000 -1.3247690e-16 0.0000000e+0
vn -1.00000000 -1.3596313e-16 0.0000000e+0
vn -1.00000000 -1.3596313e-16 0.0000000e+0
vn -2.1282580e-16 -1.1933289e-16 -1.00000000
vn -0.98078528 0.19509032 0.0000000e+0
vn -0.98078528 0.19509032 0.0000000e+0
vn -2.1282580e-16 -1.1933289e-16 -1.00000000
vn -2.1282580e-16 -1.1933289e-16 -1.00000000
vn -0.92387953 0.38268343 0.0000000e+0
vn -0.92387953 0.38268343 0.0000000e+0
vn 8.9401227e-17 -1.2221984e-16 -1.00000000
vn 8.9401227e-17 -1.2221984e-16 -1.00000000
vn 8.9401227e-17 -1.2221984e-16 -1.00000000
vn -0.92387953 0.38268343 0.0000000e+0
vn -0.92387953 0.38268343 0.0000000e+0
vn -0.83146961 0.55557023 0.0000000e+0
vn -0.83146961 0.55557023 0.0000000e+0
vn 1.6472780e-17 -1.2142650e-16 -1.00000000
vn 1.6472780e-17 -1.2142650e-16 -1.00000000
vn 1.6472780e-17 -1.2142650e-16 -1.00000000
vn -0.70710678 0.70710678 0.0000000e+0
vn -0.70710678 0.70710678 0.0000000e+0
vn -1.8297038e-17 -1.1805062e-16 -1.00000000
vn -1.8297038e-17 -1.1805062e-16 -1.00000000
vn -1.8297038e-17 -1.1805062e-16 -1.00000000
vn -0.70710678 0.70710678 0.0000000e+0
vn -0.70710678 0.70710678 0.0000000e+0
vn -0.55557023 0.83146961 0.0000000e+0
vn -0.55557023 0.83146961 0.0000000e+0
vn -3.5793112e-17 -1.2517895e-16 -1.00000000
vn -3.5793112e-17 -1.2517895e-16 -1.00000000
vn -3.5793112e-17 -1.2517895e-16 -1.00000000
vn -0.38268343 0.92387953 0.0000000e+0
vn -0.38268343 0.92387953 0.0000000e+0
vn 5.6201879e-18 -1.2275580e-16 -1.00000000
vn 5.6201879e-18 -1.2275580e-16 -1.00000000
vn 5.6201879e-18 -1.2275580e-16 -1.00000000
vn -0.38268343 0.92387953 0.0000000e+0
vn -0.38268343 0.92387953 0.0000000e+0
vn -0.19509032 0.98078528 0.0000000e+0
vn -0.19509032 0.98078528 0.0000000e+0
vn 9.6268281e-18 -1.2101363e-16 -1.00000000
vn 9.6268281e-18 -1.2101363e-16 -1.00000000
vn 9.6268281e-18 -1.2101363e-16 -1.00000000
vn -4.6366914e-16 1.00000000 0.0000000e+0
vn -4.6018290e-16 1.00000000 0.0000000e+0
vn -6.0433269e-17 -1.2411334e-16 -1.00000000
vn -6.0433269e-17 -1.2411334e-16 -1.00000000
vn -6.0433269e-17 -1.2411334e-16 -1.00000000
vn -4.6366914e-16 1.00000000 0.0000000e+0
vn -4.6366914e-16 1.00000000 0.0000000e+0
vn 0.19509032 0.98078528 0.0000000e+0
vn 0.19509032 0.98078528 0.0000000e+0
vn 6.4946952e-17 -1.2033486e-16 -1.00000000
vn 6.4946952e-17 -1.2033486e-16 -1.00000000
vn 6.4946952e-17 -1.2033486e-16 -1.00000000
vn 0.38268343 0.92387953 0.0000000e+0
vn 0.38268343 0.92387953 0.0000000e+0
vn -1.2544281e-17 -1.2517785e-16 -1.00000000
vn -1.2544281e-17 -1.2517785e-16 -1.00000000
vn -1.2544281e-17 -1.2517785e-16 -1.00000000
vn 0.38268343 0.92387953 0.0000000e+0
vn 0.38268343 0.92387953 0.0000000e+0
vn 0.55557023 0.83146961 0.0000000e+0
vn 0.55557023 0.83146961 0.0000000e+0
vn 2.9744395e-17 -1.2161534e-16 -1.00000000
vn 2.9744395e-17 -1.2161534e-16 -1.00000000
vn 2.9744395e-17 -1.2161534e-16 -1.00000000
vn 0.70710678 0.70710678 0.0000000e+0
vn 0.70710678 0.70710678 0.0000000e+0
vn 2.8273493e-17 -1.1795620e-16 -1.00000000
vn 2.8273493e-17 -1.1795620e-16 -1.00000000
vn 2.8273493e-17 -1.1795620e-16 -1.00000000
vn 0.70710678 0.70710678 0.0000000e+0
vn 0.70710678 0.70710678 0.0000000e+0
vn 0.83146961 0.55557023 0.0000000e+0
vn 0.83146961 0.55557023 0.0000000e+0
vn -4.0399260e-17 -1.2355831e-16 -1.00000000
vn -4.0399260e-17 -1.2355831e-16 -1.00000000
vn -4.0399260e-17 -1.2355831e-16 -1.00000000
vn 0.92387953 0.38268343 0.0000000e+0
vn 0.92387953 0.38268343 0.0000000e+0
vn -9.7844684e-17 -1.2010712e-16 -1.00000000
vn -9.7844684e-17 -1.2010712e-16 -1.00000000
vn -9.7844684e-17 -1.2010712e-16 -1.00000000
vn 0.92387953 0.38268343 0.0000000e+0
vn 0.92387953 0.38268343 0.0000000e+0
vn 0.98078528 0.19509032 0.0000000e+0
vn 0.98078528 0.19509032 0.0000000e+0
vn -4.1700374e-18 -1.1855866e-16 -1.00000000
vn -4.1700374e-18 -1.1855866e-16 -1.00000000
g cylinder1_item/coin/coin
usemtl item/coin/coin
f 1/126/1 32/99/180 2/101/4
f 2/101/7 32/99/184 3/97/11
f 3/97/12 31/95/177 4/93/18
f 4/93/19 30/94/172 5/89/23
f 5/89/24 29/90/165 6/88/30
f 6/88/31 28/85/160 7/82/35
f 7/82/36 27/83/153 8/79/42
f 8/79/43 26/78/148 9/75/47
f 9/75/48 25/73/141 10/72/54
f 10/72/55 24/69/136 11/68/59
f 11/68/60 23/65/129 12/64/66
f 12/64/67 22/61/124 13/59/71
f 13/59/72 21/57/117 14/54/78
f 14/54/79 20/53/112 15/49/83
f 15/49/84 19/51/105 16/45/90
f 16/45/91 18/47/100 17/10/94
f 18/47/99 16/45/89 19/51/104
f 19/51/103 15/49/82 20/53/111
f 20/53/110 14/54/77 21/57/116
f 21/57/115 13/59/70 22/61/123
f 22/61/122 12/64/65 23/65/128
f 23/65/127 11/68/58 24/69/135
f 24/69/134 10/72/53 25/73/140
f 25/73/139 9/75/46 26/78/147
f 26/78/146 8/79/41 27/83/152
f 27/83/151 7/82/34 28/85/159
f 28/85/158 6/88/29 29/90/164
f 29/90/163 5/89/22 30/94/171
f 30/94/170 4/93/17 31/95/176
f 31/95/175 3/97/10 32/99/183
f 34/46/196 64/48/372 33/11/189
f 35/50/199 63/52/364 34/46/194
f 36/55/206 62/56/359 35/50/200
f 37/58/211 61/60/352 36/55/207
f 38/62/218 60/63/347 37/58/212
f 39/67/223 59/66/340 38/62/219
f 40/71/230 58/70/335 39/67/224
f 41/74/235 57/76/328 40/71/231
f 42/77/242 56/80/323 41/74/236
f 43/81/247 55/84/316 42/77/243
f 44/86/254 54/87/311 43/81/248
f 45/89/259 53/91/304 44/86/255
f 46/92/266 52/94/299 45/89/260
f 47/96/271 51/98/292 46/92/267
f 48/100/279 50/102/288 47/96/272
f 49/126/280 50/102/285 48/100/276
f 51/98/294 47/96/273 50/102/289
f 52/94/301 46/92/268 51/98/293
f 53/91/306 45/89/261 52/94/300
f 54/87/313 44/86/256 53/91/305
f 55/84/318 43/81/249 54/87/312
f 56/80/325 42/77/244 55/84/317
f 57/76/330 41/74/237 56/80/324
f 58/70/337 40/71/232 57/76/329
f 59/66/342 39/67/225 58/70/336
f 60/63/349 38/62/220 59/66/341
f 61/60/354 37/58/213 60/63/348
f 62/56/361 36/55/208 61/60/353
f 63/52/366 35/50/201 62/56/360
f 64/48/371 34/46/195 63/52/365
g cylinder1_mtrl/white
usemtl mtrl/white
f 1/26/2 33/25/190 32/127/185
f 2/15/8 33/118/191 1/128/3
f 2/128/5 35/5/198 34/116/192
f 3/17/13 35/5/202 2/128/9
f 4/17/20 35/116/203 3/130/14
f 4/128/15 37/23/210 36/120/204
f 5/44/25 37/23/214 4/128/21
f 6/119/32 37/30/215 5/1/26
f 6/8/27 39/128/222 38/32/216
f 7/119/37 39/128/226 6/8/33
f 8/110/44 39/17/227 7/5/38
f 8/21/39 41/128/234 40/22/228
f 9/120/49 41/128/238 8/21/45
f 10/113/56 41/19/239 9/8/50
f 10/21/51 43/128/246 42/22/240
f 11/120/61 43/128/250 10/21/57
f 12/114/68 43/19/251 11/34/62
f 12/43/63 45/105/258 44/12/252
f 13/124/73 45/105/262 12/43/69
f 14/122/80 45/14/263 13/35/74
f 14/42/75 47/130/270 46/17/264
f 15/116/85 47/130/274 14/42/81
f 16/117/92 47/16/275 15/40/86
f 16/24/87 49/127/282 48/27/277
f 17/119/95 49/127/283 16/24/93
f 18/123/101 49/12/284 17/5/96
f 18/4/97 51/131/291 50/18/286
f 19/115/106 51/131/295 18/4/102
f 20/117/113 51/17/296 19/6/107
f 20/36/108 53/131/303 52/14/297
f 21/121/118 53/131/307 20/36/114
f 22/111/125 53/38/308 21/28/119
f 22/2/120 55/134/315 54/39/309
f 23/108/130 55/134/319 22/2/126
f 24/104/137 55/14/320 23/9/131
f 24/29/132 57/129/327 56/16/321
f 25/121/142 57/129/331 24/29/138
f 26/122/149 57/13/332 25/33/143
f 26/31/144 59/128/339 58/15/333
f 27/125/154 59/128/343 26/31/150
f 28/113/161 59/19/344 27/41/155
f 28/8/156 61/128/351 60/15/345
f 29/119/166 61/128/355 28/8/162
f 30/13/173 61/123/356 29/128/167
f 30/133/168 63/3/363 62/112/357
f 31/20/178 63/3/367 30/133/174
f 32/127/181 33/25/187 64/123/369
f 32/16/186 63/118/368 31/129/179
f 34/7/193 33/118/188 2/15/6
f 36/5/205 35/116/197 4/17/16
f 38/132/217 37/30/209 6/119/28
f 40/130/229 39/17/221 8/110/40
f 42/128/241 41/19/233 10/113/52
f 44/107/253 43/19/245 12/114/64
f 46/106/265 45/14/257 14/122/76
f 48/103/278 47/16/269 16/117/88
f 50/130/287 49/12/281 18/123/98
f 52/130/298 51/17/290 20/117/109
f 54/130/310 53/38/302 22/111/121
f 56/128/322 55/14/314 24/104/133
f 58/109/334 57/13/326 26/122/145
f 60/132/346 59/19/338 28/113/157
f 62/37/358 61/123/350 30/13/169
f 64/35/370 63/118/362 32/16/182
>>>>>>> origin/csy-extras
